<?xml version="1.0" encoding="utf-8"?>
<!-- Generator: Adobe Illustrator 22.1.0, SVG Export Plug-In . SVG Version: 6.00 Build 0)  -->
<svg version="1.1" id="Icon_Set" xmlns="http://www.w3.org/2000/svg" xmlns:xlink="http://www.w3.org/1999/xlink" x="0px" y="0px"
	 viewBox="0 0 512 512" style="enable-background:new 0 0 512 512;" xml:space="preserve">
<style type="text/css">
	.st0{fill:#F0C48A;}
	.st1{fill:#FD919E;}
	.st2{fill:#4C4372;}
	.st3{fill:#D3E6F8;}
	.st4{fill:#A4CFF2;}
	.st5{fill:#7BABF1;}
	.st6{fill:#FFFFFF;}
	.st7{fill:#E8677D;}
	.st8{fill:none;stroke:#4C4372;stroke-width:12;stroke-linecap:round;stroke-linejoin:round;stroke-miterlimit:10;}
</style>
<g id="Healthcare_Sign">
	<g>
		<g>
			<circle class="st0" cx="256" cy="256" r="207"/>
		</g>
	</g>
	<g>
		<g>
			<polygon class="st2" points="255.999,248.777 207.832,272.968 232.098,316.153 221.35,349.809 237.715,366.885 230.152,391.075 
				256,431.739 281.848,391.075 266.302,367.676 293.211,351.232 274.001,331.31 288.231,312.811 272.589,292.711 308.864,275.814 
							"/>
		</g>
		<g>
			<g>
				<g>
					<path class="st3" d="M390.041,119.435c5.886,0,10.658,4.771,10.658,10.658l0,0c0,5.886-4.772,10.657-10.658,10.657h-21.625
						c6.057,0,10.934,5.053,10.646,11.174c-0.27,5.732-5.208,10.142-10.947,10.142h-20.032c6.057,0,10.934,5.052,10.646,11.172
						c-0.27,5.732-5.208,10.143-10.947,10.143h-33.96c-17.658,0-31.973-14.315-31.973-31.973v0
						c0-17.658,14.315-31.973,31.973-31.973H390.041z"/>
				</g>
				<g>
					<path class="st3" d="M121.959,119.435c-5.886,0-10.658,4.771-10.658,10.658l0,0c0,5.886,4.772,10.657,10.658,10.657h21.625
						c-6.057,0-10.934,5.053-10.646,11.174c0.27,5.732,5.208,10.142,10.947,10.142h20.032c-6.057,0-10.934,5.052-10.646,11.172
						c0.27,5.732,5.208,10.143,10.947,10.143h33.96c17.658,0,31.973-14.315,31.973-31.973v0c0-17.658-14.315-31.973-31.973-31.973
						H121.959z"/>
				</g>
			</g>
			<g>
				<circle class="st5" cx="256" cy="91.555" r="21.393"/>
			</g>
			<g>
				<path class="st5" d="M256,431.739L256,431.739l-10.295-290.15c-0.219-5.837,4.453-10.689,10.295-10.689h0
					c5.841,0,10.514,4.852,10.295,10.689L256,431.739z"/>
			</g>
			<g>
				<g>
					<path class="st4" d="M256.01,441.838c-3.496,0-6.894-1.817-8.762-5.065l-22.119-38.453c-2.607-4.206-3.29-9.313-1.872-14.064
						c1.448-4.85,4.933-8.81,9.561-10.864l44.679-19.827l-60.327-21.26c-7.151-2.52-11.684-9.047-11.548-16.628
						c0.136-7.582,4.901-13.942,12.139-16.203l77.468-24.196l-93.313-27.642c-6.127-1.815-10.736-6.83-12.029-13.089
						c-1.293-6.257,0.951-12.688,5.857-16.783l23.873-19.925c4.282-3.574,10.649-2.999,14.223,1.282
						c3.574,4.281,2.999,10.649-1.282,14.223l-19.724,16.463l97.254,28.81c7.352,2.178,12.33,8.793,12.386,16.461
						c0.057,7.668-4.823,14.356-12.143,16.642l-78.232,24.434l58.98,20.786c6.728,2.371,11.257,8.509,11.538,15.637
						c0.281,7.128-3.75,13.602-10.27,16.495l-48.391,21.474l20.798,36.159c2.781,4.834,1.116,11.007-3.718,13.787
						C259.448,441.404,257.718,441.838,256.01,441.838z"/>
				</g>
			</g>
			<g>
				<path class="st2" d="M256,118.947c-15.104,0-27.393-12.288-27.393-27.393S240.896,64.162,256,64.162
					s27.393,12.288,27.393,27.393S271.104,118.947,256,118.947z M256,76.162c-8.487,0-15.393,6.905-15.393,15.393
					s6.905,15.393,15.393,15.393s15.393-6.905,15.393-15.393S264.487,76.162,256,76.162z"/>
			</g>
			<g>
				<path class="st2" d="M256,437.738c-3.23,0-5.882-2.559-5.996-5.787l-10.295-290.15c-0.167-4.456,1.448-8.689,4.55-11.909
					c3.102-3.219,7.271-4.992,11.741-4.992s8.64,1.773,11.741,4.992c3.102,3.22,4.717,7.453,4.55,11.921l-10.295,290.139
					C261.882,435.18,259.23,437.738,256,437.738z M256,136.899c-1.18,0-2.28,0.468-3.099,1.317s-1.245,1.967-1.2,3.146L256,262.529
					l4.299-121.154c0.045-1.191-0.382-2.309-1.2-3.158S257.18,136.899,256,136.899z"/>
			</g>
			<g>
				<g>
					<path class="st2" d="M256.01,447.838c-5.749,0-11.1-3.094-13.964-8.073l-22.073-38.374c-3.461-5.641-4.36-12.505-2.465-18.852
						c1.951-6.534,6.645-11.867,12.877-14.631l30.877-13.702l-46.087-16.242c-9.632-3.394-15.737-12.185-15.553-22.396
						c0.183-10.211,6.6-18.776,16.349-21.822l58.646-18.316l-74.405-22.041c-8.252-2.445-14.46-9.2-16.201-17.628
						c-1.741-8.426,1.281-17.087,7.888-22.603l23.873-19.926c6.814-5.689,16.984-4.77,22.674,2.043
						c2.756,3.302,4.061,7.479,3.675,11.762c-0.387,4.282-2.417,8.158-5.718,10.913l-11.124,9.285l86.514,25.628
						c9.901,2.933,16.605,11.843,16.682,22.17c0.076,10.328-6.497,19.335-16.355,22.413l-60.994,19.051l41.948,14.783
						c9.061,3.193,15.16,11.459,15.539,21.06c0.378,9.6-5.052,18.319-13.832,22.215l-42.303,18.772l17.478,30.386
						c2.144,3.727,2.708,8.065,1.589,12.218c-1.12,4.151-3.789,7.619-7.518,9.762C261.588,447.096,258.814,447.838,256.01,447.838z
						 M226.083,201.495c-0.927,0-1.857,0.312-2.622,0.95l-23.872,19.925c-3.204,2.676-4.671,6.876-3.826,10.963
						c0.845,4.088,3.855,7.364,7.857,8.55l93.312,27.642c2.532,0.75,4.276,3.067,4.296,5.709c0.02,2.641-1.69,4.983-4.211,5.771
						l-77.469,24.196c-4.801,1.499-7.839,5.555-7.929,10.583c-0.091,5.029,2.8,9.19,7.543,10.861l60.327,21.261
						c2.318,0.817,3.904,2.966,4.001,5.423c0.097,2.456-1.314,4.724-3.562,5.721l-44.679,19.827
						c-3.022,1.341-5.299,3.927-6.245,7.096c-0.924,3.095-0.479,6.443,1.222,9.187c0.035,0.056,0.068,0.112,0.102,0.169
						l22.119,38.453c0.729,1.269,2.094,2.057,3.562,2.057c0.718,0,1.402-0.185,2.033-0.547c0.95-0.547,1.629-1.429,1.914-2.485
						c0.284-1.057,0.141-2.161-0.404-3.109l-20.8-36.16c-0.848-1.474-1.03-3.237-0.503-4.854c0.528-1.616,1.717-2.933,3.271-3.622
						l48.392-21.475c4.259-1.89,6.892-6.118,6.709-10.774c-0.184-4.655-3.143-8.664-7.537-10.213l-58.979-20.786
						c-2.438-0.859-4.052-3.184-4.005-5.768s1.743-4.848,4.21-5.619l78.231-24.435c4.782-1.492,7.97-5.86,7.933-10.87
						c-0.037-5.009-3.288-9.329-8.09-10.752l-97.254-28.81c-2.121-0.628-3.725-2.373-4.172-4.539s0.333-4.402,2.031-5.82
						l19.724-16.463c1.734-1.448,1.969-4.037,0.521-5.771C228.424,201.996,227.257,201.495,226.083,201.495z"/>
				</g>
			</g>
			<g>
				<g>
					<path class="st2" d="M347.781,189.381h-33.96c-20.938,0-37.974-17.034-37.974-37.973s17.035-37.974,37.974-37.974h76.22
						c9.185,0,16.657,7.473,16.657,16.658c0,9.185-7.473,16.657-16.657,16.657h-5.62c0.505,1.743,0.723,3.581,0.634,5.457
						c-0.42,8.893-7.86,15.858-16.94,15.858h-4.027c0.504,1.743,0.723,3.579,0.634,5.455
						C364.303,182.414,356.862,189.381,347.781,189.381z M313.821,125.435c-14.322,0-25.974,11.651-25.974,25.974
						c0,14.321,11.651,25.973,25.974,25.973h33.96c2.616,0,4.838-1.984,4.953-4.425c0.061-1.293-0.395-2.518-1.281-3.447
						c-0.888-0.931-2.085-1.443-3.371-1.443c-3.313,0-6-2.687-6-6s2.687-6,6-6h20.032c2.616,0,4.839-1.984,4.954-4.425
						c0.061-1.293-0.394-2.517-1.281-3.446c-0.888-0.932-2.085-1.444-3.371-1.444c-3.313,0-6-2.687-6-6s2.687-6,6-6h21.625
						c2.568,0,4.657-2.089,4.657-4.657s-2.089-4.658-4.657-4.658H313.821z"/>
				</g>
				<g>
					<path class="st2" d="M198.179,189.381h-33.96c-9.081,0-16.521-6.967-16.939-15.86c-0.089-1.876,0.13-3.712,0.634-5.455h-4.027
						c-9.08,0-16.521-6.966-16.94-15.858c-0.089-1.877,0.129-3.714,0.634-5.457h-5.62c-9.185,0-16.657-7.473-16.657-16.657
						c0-9.186,7.473-16.658,16.657-16.658h76.22c20.938,0,37.974,17.035,37.974,37.974S219.117,189.381,198.179,189.381z
						 M163.918,168.065c-1.286,0-2.483,0.513-3.371,1.443c-0.887,0.93-1.342,2.154-1.281,3.447c0.115,2.44,2.337,4.425,4.953,4.425
						h33.96c14.322,0,25.974-11.651,25.974-25.973c0-14.322-11.651-25.974-25.974-25.974h-76.22c-2.568,0-4.657,2.09-4.657,4.658
						s2.089,4.657,4.657,4.657h21.625c3.313,0,6,2.687,6,6s-2.687,6-6,6c-1.286,0-2.483,0.513-3.371,1.444
						c-0.888,0.93-1.342,2.153-1.281,3.446c0.115,2.44,2.338,4.425,4.954,4.425h20.032c3.313,0,6,2.687,6,6
						S167.231,168.065,163.918,168.065z"/>
				</g>
			</g>
			<g>
				<g>
					<path class="st1" d="M255.991,441.838c-1.7,0-3.422-0.429-5.004-1.334c-4.841-2.769-6.521-8.937-3.752-13.779l20.717-36.222
						l-48.298-21.433c-6.519-2.893-10.551-9.367-10.27-16.494c0.28-7.128,4.809-13.266,11.537-15.637l58.981-20.786l-78.233-24.434
						c-7.319-2.285-12.199-8.974-12.143-16.642c0.057-7.668,5.035-14.283,12.387-16.461l97.252-28.81l-19.724-16.463
						c-4.281-3.574-4.856-9.942-1.282-14.223c3.574-4.281,9.942-4.854,14.223-1.282l23.873,19.925
						c4.905,4.094,7.15,10.525,5.858,16.782c-1.293,6.258-5.902,11.273-12.028,13.089l-93.313,27.642l77.468,24.196
						c7.239,2.261,12.004,8.621,12.14,16.203c0.136,7.582-4.397,14.109-11.549,16.629l-60.327,21.259l44.584,19.785
						c4.664,2.07,8.16,6.067,9.59,10.965c1.393,4.77,0.674,9.872-1.965,14.065l-21.947,38.372
						C262.901,440.012,259.495,441.838,255.991,441.838z"/>
				</g>
			</g>
			<g>
				<g>
					<path class="st2" d="M255.99,447.838c-2.792,0-5.553-0.735-7.983-2.126c-7.704-4.407-10.387-14.261-5.98-21.965l17.419-30.455
						l-42.225-18.737c-8.781-3.896-14.21-12.616-13.831-22.215c0.376-9.599,6.475-17.865,15.537-21.06l41.949-14.783l-60.996-19.051
						c-9.857-3.078-16.43-12.085-16.354-22.413c0.076-10.327,6.781-19.237,16.684-22.17l86.512-25.628l-11.124-9.285
						c-6.814-5.688-7.731-15.859-2.044-22.674c5.688-6.811,15.858-7.731,22.673-2.044l23.874,19.925
						c6.606,5.514,9.629,14.174,7.889,22.603c-1.741,8.428-7.948,15.183-16.199,17.629l-74.407,22.041l58.646,18.316
						c9.748,3.045,16.166,11.61,16.351,21.822c0.185,10.211-5.922,19.001-15.555,22.396l-46.086,16.241l30.783,13.66
						c6.282,2.788,10.989,8.171,12.916,14.768c1.856,6.354,0.917,13.208-2.574,18.828l-21.89,38.269
						C267.114,444.731,261.756,447.838,255.99,447.838z M285.916,201.496c-1.174,0-2.34,0.5-3.149,1.47
						c-1.448,1.734-1.214,4.323,0.521,5.771l19.724,16.463c1.698,1.418,2.479,3.654,2.031,5.82s-2.051,3.911-4.172,4.539
						l-97.252,28.81c-4.803,1.423-8.055,5.743-8.092,10.752c-0.037,5.01,3.15,9.378,7.931,10.87l78.234,24.435
						c2.467,0.771,4.163,3.035,4.21,5.619s-1.567,4.908-4.005,5.768l-58.981,20.786c-4.395,1.549-7.353,5.558-7.535,10.213
						c-0.184,4.656,2.449,8.885,6.708,10.774l48.298,21.433c1.552,0.688,2.739,2.002,3.268,3.615
						c0.529,1.613,0.35,3.375-0.493,4.848l-20.718,36.223c-1.121,1.962-0.438,4.47,1.523,5.592c0.629,0.359,1.31,0.542,2.024,0.542
						c1.472,0,2.839-0.791,3.567-2.064l21.947-38.371c0.042-0.074,0.085-0.146,0.13-0.218c1.723-2.735,2.19-6.084,1.284-9.187
						c-0.936-3.2-3.219-5.812-6.266-7.163L232.07,359.05c-2.247-0.997-3.658-3.265-3.562-5.721c0.097-2.457,1.683-4.605,4.001-5.423
						l60.326-21.26c4.744-1.672,7.636-5.834,7.545-10.861c-0.091-5.029-3.129-9.085-7.93-10.584l-77.469-24.196
						c-2.521-0.788-4.23-3.131-4.211-5.771c0.02-2.642,1.764-4.959,4.296-5.709l93.313-27.642c4.001-1.187,7.012-4.463,7.856-8.551
						c0.844-4.087-0.622-8.288-3.826-10.962l-23.873-19.925C287.773,201.808,286.843,201.496,285.916,201.496z"/>
				</g>
			</g>
			<g>
				<path class="st2" d="M180.632,168.065h-16.714c-3.313,0-6-2.687-6-6s2.687-6,6-6h16.714c3.313,0,6,2.687,6,6
					S183.945,168.065,180.632,168.065z"/>
			</g>
			<g>
				<path class="st2" d="M180.632,146.75h-37.048c-3.313,0-6-2.687-6-6s2.687-6,6-6h37.048c3.313,0,6,2.687,6,6
					S183.945,146.75,180.632,146.75z"/>
			</g>
			<g>
				<path class="st2" d="M348.04,168.065h-16.714c-3.313,0-6-2.687-6-6s2.687-6,6-6h16.714c3.313,0,6,2.687,6,6
					S351.354,168.065,348.04,168.065z"/>
			</g>
			<g>
				<path class="st2" d="M368.374,146.75h-37.048c-3.313,0-6-2.687-6-6s2.687-6,6-6h37.048c3.313,0,6,2.687,6,6
					S371.688,146.75,368.374,146.75z"/>
			</g>
		</g>
	</g>
</g>
</svg>
