<?xml version="1.0" ?><!-- Uploaded to: SVG Repo, www.svgrepo.com, Generator: SVG Repo Mixer Tools -->
<svg width="800px" height="800px" viewBox="0 0 100 100" data-name="Layer 1" id="Layer_1" xmlns="http://www.w3.org/2000/svg"><defs><style>.cls-1{fill:none;stroke:#000000;stroke-linecap:round;stroke-linejoin:round;stroke-width:2px;}</style></defs><circle class="cls-1" cx="50" cy="34.83" r="7.85"/><path class="cls-1" d="M55.5,33.86V35.8a.69.69,0,0,1-.69.7H51.67v3.14a.7.7,0,0,1-.7.7H49a.7.7,0,0,1-.7-.7V36.5H45.19a.7.7,0,0,1-.7-.7V33.86a.7.7,0,0,1,.7-.7h3.14V30a.69.69,0,0,1,.7-.69H51a.69.69,0,0,1,.7.69v3.14h3.14A.69.69,0,0,1,55.5,33.86Z"/><polyline class="cls-1" points="50.08 17.05 69.3 32.56 69.3 74.89"/><rect class="cls-1" height="28.93" width="15" x="69.29" y="45.96"/><rect class="cls-1" height="4.07" width="4.07" x="52.17" y="48.6"/><rect class="cls-1" height="4.07" width="4.07" x="60.29" y="48.6"/><rect class="cls-1" height="4.07" width="4.07" x="52.17" y="56.35"/><rect class="cls-1" height="4.07" width="4.07" x="60.29" y="56.35"/><rect class="cls-1" height="4.07" width="4.07" x="60.29" y="64.11"/><rect class="cls-1" height="4.07" width="4.07" x="74.76" y="64.11"/><rect class="cls-1" height="4.07" width="4.07" x="74.76" y="56.35"/><rect class="cls-1" height="5.61" width="15.96" x="69.29" y="40.35"/><polyline class="cls-1" points="49.92 17.05 30.7 32.56 30.7 74.89"/><rect class="cls-1" height="5.93" width="68.59" x="15.71" y="74.9"/><rect class="cls-1" height="28.93" width="15" x="15.71" y="45.96"/><rect class="cls-1" height="4.07" width="4.07" x="43.76" y="48.6"/><rect class="cls-1" height="4.07" width="4.07" x="35.64" y="48.6"/><rect class="cls-1" height="4.07" width="4.07" x="43.76" y="56.35"/><rect class="cls-1" height="4.07" width="4.07" x="35.64" y="56.35"/><rect class="cls-1" height="4.07" width="4.07" x="35.64" y="64.11"/><rect class="cls-1" height="4.07" width="4.07" x="21.17" y="64.11"/><rect class="cls-1" height="4.07" width="4.07" x="21.17" y="56.35"/><rect class="cls-1" height="5.61" width="15.96" x="14.74" y="40.35"/><rect class="cls-1" height="10.79" width="12.47" x="43.76" y="64.11"/><line class="cls-1" x1="50" x2="49.92" y1="64.11" y2="74.9"/></svg>